# xmcd
#
# Track frame offsets:
#	150
#	16060
#	28148
#	40376
#	55222
#	67612
#	79924
#	96272
#	108843
#	124695
#	142239
#	155258
#
# Disc length: 2295 seconds
# Revision: 0
# Processed by: cddbd v1.5.2PL0 Copyright (c) Steve Scherf et al.
# Submitted via: dBpowerAMP V12.0
#
DISCID=9708f50c
DTITLE=Eddy Raven with Carolina Road - All Grassed Up
DYEAR=2017
DGENRE=Country
TTITLE0=All Grassed Up
TTITLE1=Too Wet to Plow
TTITLE2=Good Morning Country Rain
TTITLE3=Bayou Boys
TTITLE4=Thank God for Kids
TTITLE5=Rollin' In My Sweet Baby's Arms
TTITLE6=I Should Have Called
TTITLE7=I Got Mexico
TTITLE8=Who Do You Know In California
TTITLE9=Island
TTITLE10=Operator, Operator
TTITLE11=Sooner Or Later
EXTD=
EXTT0=
EXTT1=
EXTT2=
EXTT3=
EXTT4=
EXTT5=
EXTT6=
EXTT7=
EXTT8=
EXTT9=
EXTT10=
EXTT11=
PLAYORDER=
